<svg width="300" height="300" viewBox="0 0 300 300" fill="none" xmlns="http://www.w3.org/2000/svg">
<rect width="300" height="300" fill="white"/>
<rect x="60" y="30" width="10" height="10" fill="#3D251D"/>
<rect x="70" y="30" width="10" height="10" fill="#3D251D"/>
<rect x="80" y="30" width="10" height="10" fill="#3D251D"/>
<rect x="90" y="30" width="10" height="10" fill="#3D251D"/>
<rect x="100" y="30" width="10" height="10" fill="#3D251D"/>
<rect x="110" y="30" width="10" height="10" fill="#3D251D"/>
<rect x="60" y="40" width="10" height="10" transform="rotate(90 60 40)" fill="#3D251D"/>
<rect x="50" y="50" width="10" height="10" transform="rotate(90 50 50)" fill="#3D251D"/>
<rect x="50" y="60" width="10" height="10" transform="rotate(90 50 60)" fill="#3D251D"/>
<rect x="50" y="70" width="10" height="10" transform="rotate(90 50 70)" fill="#3D251D"/>
<rect x="60" y="80" width="10" height="10" transform="rotate(90 60 80)" fill="#3D251D"/>
<rect x="70" y="90" width="10" height="10" transform="rotate(90 70 90)" fill="#3D251D"/>
<rect x="80" y="120" width="10" height="10" transform="rotate(90 80 120)" fill="#3D251D"/>
<rect x="90" y="110" width="10" height="10" transform="rotate(90 90 110)" fill="#3D251D"/>
<rect x="100" y="100" width="10" height="10" transform="rotate(90 100 100)" fill="#3D251D"/>
<rect x="110" y="90" width="10" height="10" transform="rotate(90 110 90)" fill="#3D251D"/>
<rect x="120" y="90" width="10" height="10" transform="rotate(90 120 90)" fill="#3D251D"/>
<rect x="80" y="90" width="10" height="10" transform="rotate(90 80 90)" fill="#3D251D"/>
<rect x="80" y="100" width="10" height="10" transform="rotate(90 80 100)" fill="#3D251D"/>
<rect x="80" y="110" width="10" height="10" transform="rotate(90 80 110)" fill="#3D251D"/>
<rect x="240" y="90" width="10" height="10" transform="rotate(-90 240 90)" fill="#3D251D"/>
<rect x="250" y="80" width="10" height="10" transform="rotate(-90 250 80)" fill="#3D251D"/>
<rect x="250" y="70" width="10" height="10" transform="rotate(-90 250 70)" fill="#3D251D"/>
<rect x="250" y="60" width="10" height="10" transform="rotate(-90 250 60)" fill="#3D251D"/>
<rect x="240" y="50" width="10" height="10" transform="rotate(-90 240 50)" fill="#3D251D"/>
<rect x="230" y="40" width="10" height="10" transform="rotate(-90 230 40)" fill="#3D251D"/>
<rect x="120" y="90" width="10" height="10" fill="#3D251D"/>
<rect x="130" y="90" width="10" height="10" fill="#3D251D"/>
<rect x="140" y="90" width="10" height="10" fill="#3D251D"/>
<rect x="150" y="90" width="10" height="10" fill="#3D251D"/>
<rect x="160" y="90" width="10" height="10" fill="#3D251D"/>
<rect x="120" y="190" width="10" height="10" fill="#824D3B"/>
<rect x="130" y="190" width="10" height="10" fill="#824D3B"/>
<rect x="140" y="190" width="10" height="10" fill="#824D3B"/>
<rect x="150" y="190" width="10" height="10" fill="#824D3B"/>
<rect x="160" y="190" width="10" height="10" fill="#824D3B"/>
<rect x="110" y="220" width="10" height="10" transform="rotate(90 110 220)" fill="#824D3B"/>
<rect x="110" y="230" width="10" height="10" transform="rotate(90 110 230)" fill="#824D3B"/>
<rect x="110" y="240" width="10" height="10" transform="rotate(90 110 240)" fill="#824D3B"/>
<rect x="110" y="210" width="10" height="10" transform="rotate(90 110 210)" fill="#824D3B"/>
<rect x="190" y="220" width="10" height="10" transform="rotate(90 190 220)" fill="#824D3B"/>
<rect x="190" y="230" width="10" height="10" transform="rotate(90 190 230)" fill="#824D3B"/>
<rect x="190" y="240" width="10" height="10" transform="rotate(90 190 240)" fill="#824D3B"/>
<rect x="190" y="210" width="10" height="10" transform="rotate(90 190 210)" fill="#824D3B"/>
<rect x="120" y="190" width="10" height="10" transform="rotate(90 120 190)" fill="#824D3B"/>
<rect x="180" y="190" width="10" height="10" transform="rotate(90 180 190)" fill="#824D3B"/>
<rect x="130" y="240" width="10" height="10" transform="rotate(90 130 240)" fill="#824D3B"/>
<rect x="130" y="220" width="10" height="10" transform="rotate(90 130 220)" fill="#824D3B"/>
<rect x="170" y="220" width="10" height="10" transform="rotate(90 170 220)" fill="#824D3B"/>
<rect x="130" y="230" width="10" height="10" transform="rotate(90 130 230)" fill="#824D3B"/>
<rect x="170" y="240" width="10" height="10" transform="rotate(90 170 240)" fill="#824D3B"/>
<rect x="170" y="220" width="10" height="10" transform="rotate(90 170 220)" fill="#824D3B"/>
<rect x="170" y="230" width="10" height="10" transform="rotate(90 170 230)" fill="#824D3B"/>
<rect x="190" y="200" width="10" height="10" transform="rotate(90 190 200)" fill="#824D3B"/>
<rect x="110" y="200" width="10" height="10" transform="rotate(90 110 200)" fill="#824D3B"/>
<rect x="170" y="90" width="10" height="10" fill="#3D251D"/>
<rect x="180" y="90" width="10" height="10" fill="#3D251D"/>
<rect x="190" y="90" width="10" height="10" fill="#3D251D"/>
<rect x="200" y="90" width="10" height="10" fill="#3D251D"/>
<rect x="210" y="90" width="10" height="10" fill="#3D251D"/>
<rect x="220" y="90" width="10" height="10" fill="#3D251D"/>
<rect x="230" y="90" width="10" height="10" fill="#3D251D"/>
<rect x="120" y="250" width="10" height="10" transform="rotate(90 120 250)" fill="#3D251D"/>
<rect x="130" y="250" width="10" height="10" transform="rotate(90 130 250)" fill="#3D251D"/>
<rect x="130" y="250" width="10" height="10" fill="#3D251D"/>
<rect x="140" y="250" width="10" height="10" fill="#3D251D"/>
<rect x="150" y="250" width="10" height="10" fill="#3D251D"/>
<rect x="160" y="250" width="10" height="10" fill="#3D251D"/>
<rect x="170" y="250" width="10" height="10" fill="#3D251D"/>
<rect x="180" y="250" width="10" height="10" fill="#3D251D"/>
<rect x="190" y="250" width="10" height="10" fill="#3D251D"/>
<rect x="200" y="250" width="10" height="10" fill="#3D251D"/>
<rect x="210" y="250" width="10" height="10" fill="#3D251D"/>
<rect x="220" y="250" width="10" height="10" fill="#3D251D"/>
<rect x="230" y="250" width="10" height="10" fill="#3D251D"/>
<rect x="240" y="250" width="10" height="10" fill="#3D251D"/>
<rect x="190" y="270" width="10" height="10" fill="#3D251D"/>
<rect x="200" y="270" width="10" height="10" fill="#3D251D"/>
<rect x="210" y="270" width="10" height="10" fill="#3D251D"/>
<rect x="220" y="270" width="10" height="10" fill="#3D251D"/>
<rect x="230" y="270" width="10" height="10" fill="#3D251D"/>
<rect x="240" y="270" width="10" height="10" fill="#3D251D"/>
<rect x="60" y="270" width="10" height="10" transform="rotate(90 60 270)" fill="#3D251D"/>
<rect x="70" y="270" width="10" height="10" transform="rotate(90 70 270)" fill="#3D251D"/>
<rect x="70" y="270" width="10" height="10" fill="#3D251D"/>
<rect x="80" y="270" width="10" height="10" fill="#3D251D"/>
<rect x="90" y="270" width="10" height="10" fill="#3D251D"/>
<rect x="100" y="270" width="10" height="10" fill="#3D251D"/>
<rect x="110" y="270" width="10" height="10" fill="#3D251D"/>
<rect x="120" y="270" width="10" height="10" fill="#3D251D"/>
<rect x="130" y="270" width="10" height="10" fill="#3D251D"/>
<rect x="140" y="270" width="10" height="10" fill="#3D251D"/>
<rect x="150" y="270" width="10" height="10" fill="#3D251D"/>
<rect x="160" y="270" width="10" height="10" fill="#3D251D"/>
<rect x="170" y="270" width="10" height="10" fill="#3D251D"/>
<rect x="180" y="270" width="10" height="10" fill="#3D251D"/>
<rect x="60" y="250" width="10" height="10" transform="rotate(90 60 250)" fill="#3D251D"/>
<rect x="70" y="250" width="10" height="10" transform="rotate(90 70 250)" fill="#3D251D"/>
<rect x="70" y="250" width="10" height="10" fill="#3D251D"/>
<rect x="80" y="250" width="10" height="10" fill="#3D251D"/>
<rect x="90" y="250" width="10" height="10" fill="#3D251D"/>
<rect x="100" y="250" width="10" height="10" fill="#3D251D"/>
<rect x="110" y="250" width="10" height="10" fill="#3D251D"/>
<rect x="120" y="250" width="10" height="10" fill="#3D251D"/>
<rect x="130" y="250" width="10" height="10" fill="#3D251D"/>
<rect x="140" y="250" width="10" height="10" fill="#3D251D"/>
<rect x="150" y="250" width="10" height="10" fill="#3D251D"/>
<rect x="160" y="250" width="10" height="10" fill="#3D251D"/>
<rect x="170" y="250" width="10" height="10" fill="#3D251D"/>
<rect x="180" y="250" width="10" height="10" fill="#3D251D"/>
<rect x="120" y="30" width="10" height="10" fill="#3D251D"/>
<rect x="130" y="30" width="10" height="10" fill="#3D251D"/>
<rect x="140" y="30" width="10" height="10" fill="#3D251D"/>
<rect x="150" y="30" width="10" height="10" fill="#3D251D"/>
<rect x="160" y="30" width="10" height="10" fill="#3D251D"/>
<rect x="170" y="30" width="10" height="10" fill="#3D251D"/>
<rect x="180" y="30" width="10" height="10" fill="#3D251D"/>
<rect x="190" y="30" width="10" height="10" fill="#3D251D"/>
<rect x="200" y="30" width="10" height="10" fill="#3D251D"/>
<rect x="210" y="30" width="10" height="10" fill="#3D251D"/>
<rect x="220" y="30" width="10" height="10" fill="#3D251D"/>
<rect x="230" y="30" width="10" height="10" fill="#3D251D"/>
<rect x="20" y="140" width="10" height="10" fill="#DF9C7C"/>
<rect x="30" y="140" width="10" height="10" fill="#DF9C7C"/>
<rect x="40" y="140" width="10" height="10" fill="#DF9C7C"/>
<rect x="20" y="210" width="10" height="10" transform="rotate(90 20 210)" fill="#DF9C7C"/>
<rect x="20" y="220" width="10" height="10" transform="rotate(90 20 220)" fill="#DF9C7C"/>
<rect x="20" y="270" width="10" height="10" transform="rotate(90 20 270)" fill="#DF9C7C"/>
<rect x="20" y="240" width="10" height="10" transform="rotate(90 20 240)" fill="#DF9C7C"/>
<rect x="20" y="250" width="10" height="10" transform="rotate(90 20 250)" fill="#DF9C7C"/>
<rect x="20" y="260" width="10" height="10" transform="rotate(90 20 260)" fill="#DF9C7C"/>
<rect x="20" y="200" width="10" height="10" fill="#DF9C7C"/>
<rect x="30" y="200" width="10" height="10" fill="#DF9C7C"/>
<rect x="40" y="210" width="10" height="10" fill="#DF9C7C"/>
<rect x="10" y="230" width="10" height="10" fill="#DF9C7C"/>
<rect x="30" y="230" width="10" height="10" fill="#DF9C7C"/>
<rect x="40" y="240" width="10" height="10" fill="#DF9C7C"/>
<rect x="80" y="240" width="10" height="10" fill="#DF9C7C"/>
<rect x="50" y="220" width="10" height="10" fill="#DF9C7C"/>
<rect x="60" y="230" width="10" height="10" fill="#DF9C7C"/>
<rect x="70" y="230" width="10" height="10" fill="#DF9C7C"/>
<rect width="10" height="10" transform="matrix(4.37114e-08 1 1 -4.37114e-08 270 210)" fill="#B7744A"/>
<rect width="10" height="10" transform="matrix(4.37114e-08 1 1 -4.37114e-08 270 220)" fill="#B7744A"/>
<rect width="10" height="10" transform="matrix(4.37114e-08 1 1 -4.37114e-08 270 240)" fill="#B7744A"/>
<rect width="10" height="10" transform="matrix(-1 0 0 1 270 200)" fill="#B7744A"/>
<rect width="10" height="10" transform="matrix(-1 0 0 1 260 200)" fill="#B7744A"/>
<rect width="10" height="10" transform="matrix(-1 0 0 1 250 210)" fill="#B7744A"/>
<rect width="10" height="10" transform="matrix(-1 0 0 1 280 230)" fill="#B7744A"/>
<rect width="10" height="10" transform="matrix(4.37114e-08 1 1 -4.37114e-08 270 260)" fill="#B7744A"/>
<rect width="10" height="10" transform="matrix(4.37114e-08 1 1 -4.37114e-08 270 270)" fill="#B7744A"/>
<rect width="10" height="10" transform="matrix(-1 0 0 1 280 250)" fill="#B7744A"/>
<rect width="10" height="10" transform="matrix(-1 0 0 1 260 230)" fill="#B7744A"/>
<rect width="10" height="10" transform="matrix(-1 0 0 1 250 240)" fill="#B7744A"/>
<rect width="10" height="10" transform="matrix(-1 0 0 1 210 240)" fill="#B7744A"/>
<rect width="10" height="10" transform="matrix(-1 0 0 1 240 220)" fill="#B7744A"/>
<rect width="10" height="10" transform="matrix(-1 0 0 1 230 230)" fill="#B7744A"/>
<rect width="10" height="10" transform="matrix(-1 0 0 1 220 230)" fill="#B7744A"/>
<rect x="20" y="150" width="10" height="10" transform="rotate(90 20 150)" fill="#DF9C7C"/>
<rect x="20" y="160" width="10" height="10" transform="rotate(90 20 160)" fill="#DF9C7C"/>
<rect x="20" y="170" width="10" height="10" transform="rotate(90 20 170)" fill="#DF9C7C"/>
<rect x="60" y="150" width="10" height="10" transform="rotate(90 60 150)" fill="#DF9C7C"/>
<rect x="60" y="160" width="10" height="10" transform="rotate(90 60 160)" fill="#DF9C7C"/>
<rect x="60" y="170" width="10" height="10" transform="rotate(90 60 170)" fill="#DF9C7C"/>
<rect x="20" y="180" width="10" height="10" fill="#DF9C7C"/>
<rect x="30" y="180" width="10" height="10" fill="#DF9C7C"/>
<rect x="40" y="180" width="10" height="10" fill="#DF9C7C"/>
<rect x="130" y="130" width="10" height="10" fill="#824D3B"/>
<rect x="140" y="130" width="10" height="10" fill="#824D3B"/>
<rect x="150" y="130" width="10" height="10" fill="#824D3B"/>
<rect x="130" y="140" width="10" height="10" transform="rotate(90 130 140)" fill="#824D3B"/>
<rect x="130" y="150" width="10" height="10" transform="rotate(90 130 150)" fill="#824D3B"/>
<rect x="130" y="160" width="10" height="10" transform="rotate(90 130 160)" fill="#824D3B"/>
<rect x="170" y="140" width="10" height="10" transform="rotate(90 170 140)" fill="#824D3B"/>
<rect x="170" y="150" width="10" height="10" transform="rotate(90 170 150)" fill="#824D3B"/>
<rect x="170" y="160" width="10" height="10" transform="rotate(90 170 160)" fill="#824D3B"/>
<rect x="130" y="170" width="10" height="10" fill="#824D3B"/>
<rect x="140" y="170" width="10" height="10" fill="#824D3B"/>
<rect x="150" y="170" width="10" height="10" fill="#824D3B"/>
<rect x="240" y="140" width="10" height="10" fill="#B7744A"/>
<rect x="250" y="140" width="10" height="10" fill="#B7744A"/>
<rect x="260" y="140" width="10" height="10" fill="#B7744A"/>
<rect x="240" y="150" width="10" height="10" transform="rotate(90 240 150)" fill="#B7744A"/>
<rect x="240" y="160" width="10" height="10" transform="rotate(90 240 160)" fill="#B7744A"/>
<rect x="240" y="170" width="10" height="10" transform="rotate(90 240 170)" fill="#B7744A"/>
<rect x="280" y="150" width="10" height="10" transform="rotate(90 280 150)" fill="#B7744A"/>
<rect x="280" y="160" width="10" height="10" transform="rotate(90 280 160)" fill="#B7744A"/>
<rect x="280" y="170" width="10" height="10" transform="rotate(90 280 170)" fill="#B7744A"/>
<rect x="240" y="180" width="10" height="10" fill="#B7744A"/>
<rect x="250" y="180" width="10" height="10" fill="#B7744A"/>
<rect x="260" y="180" width="10" height="10" fill="#B7744A"/>
<rect x="40" y="260" width="10" height="10" fill="#3D251D"/>
<rect x="250" y="260" width="10" height="10" fill="#3D251D"/>
<rect x="85" y="60" width="10" height="10" fill="#3D251D"/>
<rect x="105" y="60" width="10" height="10" fill="#3D251D"/>
<rect x="125" y="60" width="10" height="10" fill="#3D251D"/>
</svg>
