<svg width="169" height="180" viewBox="0 0 169 180" fill="none" xmlns="http://www.w3.org/2000/svg">
<rect x="39" width="10" height="10" fill="#65382D"/>
<rect x="49" width="10" height="10" fill="#65382D"/>
<rect x="59" width="10" height="10" fill="#65382D"/>
<rect x="109" width="10" height="10" fill="#65382D"/>
<rect x="99" width="10" height="10" fill="#65382D"/>
<rect x="89" width="10" height="10" fill="#65382D"/>
<rect x="79" width="10" height="10" fill="#65382D"/>
<rect x="69" width="10" height="10" fill="#65382D"/>
<rect x="119" width="10" height="10" fill="#65382D"/>
<rect x="129" width="10" height="10" fill="#65382D"/>
<rect x="29" y="10" width="10" height="10" fill="#65382D"/>
<rect x="19" y="120" width="10" height="10" fill="#65382D"/>
<rect x="9" y="120" width="10" height="10" fill="#65382D"/>
<rect x="9" y="130" width="10" height="10" fill="#65382D"/>
<rect x="9" y="140" width="10" height="10" fill="#65382D"/>
<rect y="130" width="10" height="10" fill="#65382D"/>
<rect x="19" y="150" width="10" height="10" fill="#65382D"/>
<rect x="19" y="140" width="10" height="10" fill="#65382D"/>
<rect x="19" y="130" width="10" height="10" fill="#65382D"/>
<rect x="19" y="110" width="10" height="10" fill="#65382D"/>
<rect x="19" y="100" width="10" height="10" fill="#65382D"/>
<rect x="19" y="90" width="10" height="10" fill="#65382D"/>
<rect x="19" y="80" width="10" height="10" fill="#65382D"/>
<rect x="19" y="70" width="10" height="10" fill="#65382D"/>
<rect x="19" y="60" width="10" height="10" fill="#65382D"/>
<rect x="19" y="50" width="10" height="10" fill="#65382D"/>
<rect x="19" y="40" width="10" height="10" fill="#65382D"/>
<rect x="19" y="30" width="10" height="10" fill="#65382D"/>
<rect x="19" y="20" width="10" height="10" fill="#65382D"/>
<rect x="39" y="10" width="10" height="10" fill="#65382D"/>
<rect x="29" y="110" width="10" height="10" fill="#65382D"/>
<rect x="39" y="110" width="10" height="10" fill="#65382D"/>
<rect x="29" y="90" width="10" height="10" fill="#65382D"/>
<rect x="29" y="80" width="10" height="10" fill="#65382D"/>
<rect x="39" y="30" width="10" height="10" fill="#65382D"/>
<rect x="29" y="30" width="10" height="10" fill="#65382D"/>
<rect x="9" y="140" width="10" height="10" fill="#65382D"/>
<rect x="29" y="140" width="10" height="10" fill="#65382D"/>
<rect x="19" y="140" width="10" height="10" fill="#65382D"/>
<rect x="19" y="120" width="10" height="10" fill="#65382D"/>
<rect x="39" y="120" width="10" height="10" fill="#65382D"/>
<rect x="29" y="120" width="10" height="10" fill="#65382D"/>
<rect x="19" y="130" width="10" height="10" fill="#65382D"/>
<rect x="39" y="130" width="10" height="10" fill="#65382D"/>
<rect x="29" y="130" width="10" height="10" fill="#65382D"/>
<rect x="19" y="100" width="10" height="10" fill="#65382D"/>
<rect x="39" y="100" width="10" height="10" fill="#65382D"/>
<rect x="29" y="100" width="10" height="10" fill="#65382D"/>
<rect x="19" y="70" width="10" height="10" fill="#65382D"/>
<rect x="39" y="70" width="10" height="10" fill="#65382D"/>
<rect x="29" y="70" width="10" height="10" fill="#65382D"/>
<rect x="19" y="40" width="10" height="10" fill="#65382D"/>
<rect x="39" y="40" width="10" height="10" fill="#65382D"/>
<rect x="29" y="40" width="10" height="10" fill="#65382D"/>
<rect x="19" y="50" width="10" height="10" fill="#65382D"/>
<rect x="39" y="50" width="10" height="10" fill="#65382D"/>
<rect x="29" y="50" width="10" height="10" fill="#65382D"/>
<rect x="19" y="60" width="10" height="10" fill="#65382D"/>
<rect x="39" y="60" width="10" height="10" fill="#65382D"/>
<rect x="29" y="60" width="10" height="10" fill="#65382D"/>
<rect x="49" y="20" width="10" height="10" fill="#65382D"/>
<rect x="39" y="20" width="10" height="10" fill="#65382D"/>
<rect x="29" y="20" width="10" height="10" fill="#65382D"/>
<rect x="59" y="10" width="10" height="10" fill="#65382D"/>
<rect x="49" y="10" width="10" height="10" fill="#65382D"/>
<rect x="69" y="10" width="10" height="10" fill="#C685B2"/>
<rect x="79" y="10" width="10" height="10" fill="#C685B2"/>
<rect x="149" y="20" width="10" height="10" fill="#C685B2"/>
<rect x="139" y="10" width="10" height="10" fill="#C685B2"/>
<rect x="129" y="10" width="10" height="10" fill="#C685B2"/>
<rect x="119" y="10" width="10" height="10" fill="#C685B2"/>
<rect x="109" y="10" width="10" height="10" fill="#C685B2"/>
<rect x="99" y="10" width="10" height="10" fill="#C685B2"/>
<rect x="89" y="10" width="10" height="10" fill="#C685B2"/>
<rect x="159" y="30" width="10" height="10" fill="#C685B2"/>
<rect x="59" y="20" width="10" height="10" fill="#C685B2"/>
<rect x="49" y="30" width="10" height="10" fill="#C685B2"/>
<rect x="49" y="70" width="10" height="10" fill="#C685B2"/>
<rect x="49" y="40" width="10" height="10" fill="#C685B2"/>
<rect x="49" y="50" width="10" height="10" fill="#C685B2"/>
<rect x="49" y="60" width="10" height="10" fill="#C685B2"/>
<rect x="119" y="20" width="10" height="10" fill="#65382D"/>
<rect x="109" y="20" width="10" height="10" fill="#65382D"/>
<rect x="99" y="20" width="10" height="10" fill="#65382D"/>
<rect x="119" y="30" width="10" height="10" fill="#65382D"/>
<rect x="109" y="30" width="10" height="10" fill="#65382D"/>
<rect x="99" y="30" width="10" height="10" fill="#65382D"/>
<rect x="149" y="30" width="10" height="10" fill="#65382D"/>
<rect x="139" y="30" width="10" height="10" fill="#65382D"/>
<rect x="129" y="30" width="10" height="10" fill="#65382D"/>
<rect x="139" y="20" width="10" height="10" fill="#65382D"/>
<rect x="129" y="20" width="10" height="10" fill="#65382D"/>
<rect x="119" y="20" width="10" height="10" fill="#65382D"/>
<rect x="89" y="20" width="10" height="10" fill="#65382D"/>
<rect x="79" y="20" width="10" height="10" fill="#65382D"/>
<rect x="69" y="20" width="10" height="10" fill="#65382D"/>
<rect x="79" y="30" width="10" height="10" fill="#65382D"/>
<rect x="69" y="30" width="10" height="10" fill="#65382D"/>
<rect x="59" y="30" width="10" height="10" fill="#65382D"/>
<rect x="79" y="40" width="10" height="10" fill="#65382D"/>
<rect x="69" y="40" width="10" height="10" fill="#65382D"/>
<rect x="59" y="40" width="10" height="10" fill="#65382D"/>
<rect x="79" y="50" width="10" height="10" fill="#65382D"/>
<rect x="69" y="50" width="10" height="10" fill="#65382D"/>
<rect x="59" y="50" width="10" height="10" fill="#65382D"/>
<rect x="149" y="40" width="10" height="10" fill="#65382D"/>
<rect x="139" y="40" width="10" height="10" fill="#65382D"/>
<rect x="129" y="40" width="10" height="10" fill="#65382D"/>
<rect x="169" y="60" width="10" height="10" transform="rotate(90 169 60)" fill="#65382D"/>
<rect x="169" y="50" width="10" height="10" transform="rotate(90 169 50)" fill="#65382D"/>
<rect x="154" y="50" width="10" height="10" fill="#65382D"/>
<rect x="144" y="50" width="10" height="10" fill="#65382D"/>
<rect x="99" y="40" width="10" height="10" transform="rotate(90 99 40)" fill="#65382D"/>
<rect x="99" y="30" width="10" height="10" transform="rotate(90 99 30)" fill="#65382D"/>
<rect x="69" y="80" width="10" height="10" transform="rotate(90 69 80)" fill="#65382D"/>
<rect x="69" y="70" width="10" height="10" transform="rotate(90 69 70)" fill="#65382D"/>
<rect x="69" y="60" width="10" height="10" fill="#65382D"/>
<rect x="59" y="60" width="10" height="10" fill="#65382D"/>
<rect x="169" y="40" width="10" height="10" transform="rotate(90 169 40)" fill="#65382D"/>
<rect x="119" y="50" width="10" height="10" fill="#B7744A"/>
<rect x="109" y="50" width="10" height="10" fill="#B7744A"/>
<rect x="99" y="50" width="10" height="10" fill="#B7744A"/>
<rect x="39" y="90" width="10" height="10" fill="#B7744A"/>
<rect x="49" y="80" width="10" height="10" fill="#B7744A"/>
<rect x="39" y="80" width="10" height="10" fill="#B7744A"/>
<rect x="159" y="100" width="10" height="10" transform="rotate(90 159 100)" fill="#B7744A"/>
<rect x="159" y="90" width="10" height="10" transform="rotate(90 159 90)" fill="#B7744A"/>
<rect x="159" y="80" width="10" height="10" transform="rotate(90 159 80)" fill="#B7744A"/>
<rect x="119" y="70" width="10" height="10" fill="#B7744A"/>
<rect x="109" y="70" width="10" height="10" fill="#B7744A"/>
<rect x="99" y="70" width="10" height="10" fill="#B7744A"/>
<rect x="149" y="70" width="10" height="10" fill="#B7744A"/>
<rect x="139" y="70" width="10" height="10" fill="#B7744A"/>
<rect x="129" y="70" width="10" height="10" fill="#B7744A"/>
<rect x="119" y="80" width="10" height="10" fill="#B7744A"/>
<rect x="109" y="80" width="10" height="10" fill="#B7744A"/>
<rect x="99" y="80" width="10" height="10" fill="#B7744A"/>
<rect x="149" y="80" width="10" height="10" fill="#B7744A"/>
<rect x="139" y="80" width="10" height="10" fill="#B7744A"/>
<rect x="129" y="80" width="10" height="10" fill="#B7744A"/>
<rect x="109" y="90" width="10" height="10" fill="#B7744A"/>
<rect x="99" y="90" width="10" height="10" fill="#B7744A"/>
<rect x="89" y="90" width="10" height="10" fill="#B7744A"/>
<rect x="139" y="90" width="10" height="10" fill="#B7744A"/>
<rect x="129" y="90" width="10" height="10" fill="#B7744A"/>
<rect x="119" y="90" width="10" height="10" fill="#B7744A"/>
<rect x="109" y="100" width="10" height="10" fill="#B7744A"/>
<rect x="99" y="100" width="10" height="10" fill="#B7744A"/>
<rect x="89" y="100" width="10" height="10" fill="#B7744A"/>
<rect x="139" y="100" width="10" height="10" fill="#B7744A"/>
<rect x="129" y="100" width="10" height="10" fill="#B7744A"/>
<rect x="89" y="170" width="10" height="10" transform="rotate(-180 89 170)" fill="#B7744A"/>
<rect x="89" y="150" width="10" height="10" transform="rotate(90 89 150)" fill="#B7744A"/>
<rect x="89" y="140" width="10" height="10" transform="rotate(90 89 140)" fill="#B7744A"/>
<rect x="89" y="170" width="10" height="10" transform="rotate(-180 89 170)" fill="#B7744A"/>
<rect x="89" y="150" width="10" height="10" transform="rotate(90 89 150)" fill="#B7744A"/>
<rect x="89" y="140" width="10" height="10" transform="rotate(90 89 140)" fill="#B7744A"/>
<rect x="79" y="170" width="10" height="10" transform="rotate(-180 79 170)" fill="#B7744A"/>
<rect x="79" y="150" width="10" height="10" transform="rotate(90 79 150)" fill="#B7744A"/>
<rect x="79" y="140" width="10" height="10" transform="rotate(90 79 140)" fill="#B7744A"/>
<rect x="69" y="170" width="10" height="10" transform="rotate(-180 69 170)" fill="#B7744A"/>
<rect x="69" y="150" width="10" height="10" transform="rotate(90 69 150)" fill="#B7744A"/>
<rect x="69" y="140" width="10" height="10" transform="rotate(90 69 140)" fill="#B7744A"/>
<rect x="79" y="160" width="10" height="10" transform="rotate(-180 79 160)" fill="#B7744A"/>
<rect x="79" y="140" width="10" height="10" transform="rotate(90 79 140)" fill="#B7744A"/>
<rect x="79" y="130" width="10" height="10" transform="rotate(90 79 130)" fill="#B7744A"/>
<rect x="69" y="140" width="10" height="10" transform="rotate(90 69 140)" fill="#B7744A"/>
<rect x="129" y="170" width="10" height="10" transform="rotate(-180 129 170)" fill="#824D3B"/>
<rect x="129" y="150" width="10" height="10" transform="rotate(90 129 150)" fill="#824D3B"/>
<rect x="129" y="140" width="10" height="10" transform="rotate(90 129 140)" fill="#824D3B"/>
<rect x="139" y="170" width="10" height="10" transform="rotate(-180 139 170)" fill="#824D3B"/>
<rect x="139" y="150" width="10" height="10" transform="rotate(90 139 150)" fill="#824D3B"/>
<rect x="139" y="140" width="10" height="10" transform="rotate(90 139 140)" fill="#824D3B"/>
<rect x="129" y="130" width="10" height="10" transform="rotate(90 129 130)" fill="#824D3B"/>
<rect x="109" y="130" width="10" height="10" fill="#B7744A"/>
<rect x="100" y="130" width="10" height="10" fill="#B7744A"/>
<rect x="109" y="130" width="10" height="10" transform="rotate(90 109 130)" fill="#B7744A"/>
<rect x="89" y="130" width="10" height="10" fill="#B7744A"/>
<rect x="79" y="130" width="10" height="10" fill="#B7744A"/>
<rect x="119" y="100" width="10" height="10" fill="#B7744A"/>
<rect x="99" y="110" width="10" height="10" fill="#B7744A"/>
<rect x="89" y="110" width="10" height="10" fill="#B7744A"/>
<rect x="79" y="110" width="10" height="10" fill="#B7744A"/>
<rect x="69" y="100" width="10" height="10" fill="#B7744A"/>
<rect x="59" y="100" width="10" height="10" fill="#B7744A"/>
<rect x="49" y="100" width="10" height="10" fill="#B7744A"/>
<rect x="129" y="110" width="10" height="10" fill="#B7744A"/>
<rect x="119" y="110" width="10" height="10" fill="#B7744A"/>
<rect x="109" y="110" width="10" height="10" fill="#B7744A"/>
<rect x="139" y="110" width="10" height="10" fill="#B7744A"/>
<rect x="129" y="110" width="10" height="10" fill="#B7744A"/>
<rect x="119" y="110" width="10" height="10" fill="#B7744A"/>
<rect x="169" y="90" width="10" height="10" transform="rotate(90 169 90)" fill="#B7744A"/>
<rect x="169" y="80" width="10" height="10" transform="rotate(90 169 80)" fill="#B7744A"/>
<rect x="169" y="70" width="10" height="10" transform="rotate(90 169 70)" fill="#B7744A"/>
<rect x="79" y="90" width="10" height="10" fill="#B7744A"/>
<rect x="69" y="90" width="10" height="10" fill="#B7744A"/>
<rect x="59" y="90" width="10" height="10" fill="#B7744A"/>
<rect x="79" y="100" width="10" height="10" fill="#B7744A"/>
<rect x="69" y="100" width="10" height="10" fill="#B7744A"/>
<rect x="59" y="100" width="10" height="10" fill="#B7744A"/>
<rect x="69" y="110" width="10" height="10" fill="#B7744A"/>
<rect x="59" y="110" width="10" height="10" fill="#B7744A"/>
<rect x="89" y="80" width="10" height="10" fill="#B7744A"/>
<rect x="79" y="80" width="10" height="10" fill="#B7744A"/>
<rect x="69" y="80" width="10" height="10" fill="#B7744A"/>
<rect x="89" y="70" width="10" height="10" fill="#B7744A"/>
<rect x="79" y="70" width="10" height="10" fill="#B7744A"/>
<rect x="69" y="70" width="10" height="10" fill="#B7744A"/>
<rect x="149" y="60" width="10" height="10" fill="#B7744A"/>
<rect x="139" y="60" width="10" height="10" fill="#B7744A"/>
<rect x="129" y="60" width="10" height="10" fill="#B7744A"/>
<rect x="129" y="60" width="10" height="10" fill="#B7744A"/>
<rect x="119" y="60" width="10" height="10" fill="#B7744A"/>
<rect x="109" y="60" width="10" height="10" fill="#B7744A"/>
<rect x="99" y="60" width="10" height="10" fill="#B7744A"/>
<rect x="89" y="60" width="10" height="10" fill="#B7744A"/>
<rect x="79" y="60" width="10" height="10" fill="#B7744A"/>
<rect x="109" y="50" width="10" height="10" fill="#B7744A"/>
<rect x="99" y="50" width="10" height="10" fill="#B7744A"/>
<rect x="89" y="50" width="10" height="10" fill="#B7744A"/>
<rect x="139" y="50" width="10" height="10" fill="#B7744A"/>
<rect x="129" y="50" width="10" height="10" fill="#B7744A"/>
<rect x="119" y="50" width="10" height="10" fill="#B7744A"/>
<rect x="119" y="40" width="10" height="10" fill="#B7744A"/>
<rect x="109" y="40" width="10" height="10" fill="#B7744A"/>
<rect x="99" y="40" width="10" height="10" fill="#B7744A"/>
<rect x="49" y="110" width="10" height="10" fill="#3D251D"/>
<rect x="49" y="130" width="10" height="10" fill="#3D251D"/>
<rect x="49" y="120" width="10" height="10" fill="#3D251D"/>
<rect x="59" y="130" width="10" height="10" transform="rotate(-90 59 130)" fill="#3D251D"/>
<rect x="79" y="130" width="10" height="10" transform="rotate(-90 79 130)" fill="#3D251D"/>
<rect x="69" y="130" width="10" height="10" transform="rotate(-90 69 130)" fill="#3D251D"/>
<rect x="99" y="80" width="10" height="10" transform="rotate(-90 99 80)" fill="#3D251D" fill-opacity="0.75"/>
<rect x="129" y="90" width="10" height="10" transform="rotate(-90 129 90)" fill="#3D251D"/>
<rect x="129" y="80" width="10" height="10" transform="rotate(-90 129 80)" fill="#3D251D" fill-opacity="0.7"/>
<rect x="99" y="90" width="10" height="10" transform="rotate(-90 99 90)" fill="#3D251D"/>
<rect x="139" y="160" width="10" height="10" transform="rotate(-90 139 160)" fill="#3D251D"/>
<rect x="69" y="130" width="10" height="10" transform="rotate(-90 69 130)" fill="#3D251D"/>
<rect x="89" y="130" width="10" height="10" transform="rotate(-90 89 130)" fill="#824D3B"/>
<rect x="79" y="130" width="10" height="10" transform="rotate(-90 79 130)" fill="#3D251D"/>
<rect x="39" y="140" width="10" height="10" transform="rotate(-90 39 140)" fill="#3D251D"/>
<rect x="59" y="140" width="10" height="10" transform="rotate(-90 59 140)" fill="#3D251D"/>
<rect x="59" y="140" width="10" height="10" transform="rotate(-90 59 140)" fill="#3D251D"/>
<rect x="39" y="150" width="10" height="10" transform="rotate(-90 39 150)" fill="#3D251D"/>
<rect x="49" y="150" width="10" height="10" transform="rotate(-90 49 150)" fill="#3D251D"/>
<rect x="29" y="160" width="10" height="10" transform="rotate(-90 29 160)" fill="#3D251D"/>
<rect x="49" y="160" width="10" height="10" transform="rotate(-90 49 160)" fill="#3D251D"/>
<rect x="39" y="160" width="10" height="10" transform="rotate(-90 39 160)" fill="#3D251D"/>
<rect x="29" y="170" width="10" height="10" transform="rotate(-90 29 170)" fill="#3D251D"/>
<rect x="49" y="170" width="10" height="10" transform="rotate(-90 49 170)" fill="#3D251D"/>
<rect x="39" y="170" width="10" height="10" transform="rotate(-90 39 170)" fill="#3D251D"/>
<rect x="39" y="180" width="10" height="10" transform="rotate(-90 39 180)" fill="#3D251D"/>
<rect x="49" y="180" width="10" height="10" transform="rotate(-90 49 180)" fill="#3D251D"/>
<rect x="109" y="130" width="10" height="10" transform="rotate(-90 109 130)" fill="#3D251D"/>
<rect x="129" y="130" width="10" height="10" transform="rotate(-90 129 130)" fill="#3D251D"/>
<rect x="119" y="130" width="10" height="10" transform="rotate(-90 119 130)" fill="#3D251D"/>
<rect x="139" y="140" width="10" height="10" transform="rotate(-90 139 140)" fill="#3D251D"/>
<rect x="129" y="140" width="10" height="10" transform="rotate(-90 129 140)" fill="#3D251D"/>
<rect x="149" y="150" width="10" height="10" transform="rotate(-90 149 150)" fill="#3D251D"/>
<rect x="139" y="150" width="10" height="10" transform="rotate(-90 139 150)" fill="#3D251D"/>
<rect x="49" y="90" width="10" height="10" fill="#DF9C7C"/>
<rect x="89" y="120" width="10" height="10" fill="#824D3B"/>
<rect x="99" y="120" width="10" height="10" fill="#824D3B"/>
<rect x="109" y="140" width="10" height="10" fill="#805B9F"/>
<rect x="79" y="150" width="10" height="10" fill="#805B9F"/>
<rect x="79" y="160" width="10" height="10" fill="#805B9F"/>
<rect x="79" y="140" width="10" height="10" fill="#805B9F"/>
<rect x="79" y="130" width="10" height="10" fill="#805B9F"/>
<rect x="109" y="160" width="10" height="10" fill="#805B9F"/>
<rect x="109" y="150" width="10" height="10" fill="#805B9F"/>
<rect x="109" y="130" width="10" height="10" fill="#805B9F"/>
<rect x="89" y="140" width="10" height="10" fill="#C885B5"/>
<rect x="99" y="140" width="10" height="10" fill="#C885B5"/>
<rect x="89" y="150" width="10" height="10" fill="#C885B5"/>
<rect x="99" y="150" width="10" height="10" fill="#C885B5"/>
<rect x="89" y="160" width="10" height="10" fill="#C885B5"/>
<rect x="99" y="160" width="10" height="10" fill="#C885B5"/>
</svg>
